<svg width="785" height="261" viewBox="0 0 785 261" fill="none" xmlns="http://www.w3.org/2000/svg">
<path d="M469.186 26.9304L467.468 5.53876C467.305 5.08207 467.031 4.67349 466.669 4.35037C466.308 4.02726 465.871 3.79994 465.399 3.68924C464.927 3.57854 464.435 3.58798 463.968 3.71671C463.5 3.84543 463.073 4.08932 462.724 4.42606L441.773 24.0532C435.155 22.6504 428.351 22.3442 421.634 23.1467L421.105 2.05975C420.963 1.59172 420.705 1.16714 420.355 0.825593C420.005 0.484046 419.574 0.236613 419.103 0.106324C418.631 -0.0239639 418.135 -0.0328605 417.659 0.0804454C417.183 0.193751 416.744 0.425586 416.382 0.754365L399.478 19.4868C387.763 25.7695 378.368 35.6404 372.672 47.652C366.976 59.6637 365.278 73.1842 367.827 86.2314C370.376 99.2785 377.038 111.166 386.836 120.15C396.634 129.135 409.053 134.744 422.271 136.156C435.49 137.567 448.813 134.707 460.287 127.994C471.762 121.281 480.783 111.068 486.03 98.8535C491.276 86.6388 492.472 73.0645 489.44 60.1209C486.409 47.1774 479.311 35.5454 469.186 26.9304H469.186Z" fill="#3F3D56"/>
<path d="M476.952 113.74C499.833 113.376 528.619 193.672 474.396 194.088C446.34 194.303 396.67 199.775 396.67 199.775C396.67 199.775 358.059 141.828 375.279 105.777L476.952 113.74Z" fill="#3F3D56"/>
<path d="M426.623 156.173V197.775H446.073L461.505 155.414" fill="#3F3D56"/>
<path d="M446.073 198.534H426.623C426.422 198.534 426.229 198.454 426.087 198.311C425.944 198.169 425.865 197.976 425.865 197.775V156.173C425.865 155.972 425.944 155.779 426.087 155.637C426.229 155.494 426.422 155.414 426.623 155.414C426.824 155.414 427.017 155.494 427.159 155.637C427.301 155.779 427.381 155.972 427.381 156.173V197.017H445.542L460.792 155.155C460.861 154.966 461.002 154.812 461.185 154.727C461.367 154.642 461.576 154.633 461.765 154.702C461.954 154.771 462.107 154.912 462.192 155.094C462.277 155.276 462.286 155.485 462.218 155.674L446.786 198.035C446.733 198.181 446.636 198.307 446.508 198.397C446.381 198.486 446.229 198.534 446.073 198.534V198.534Z" fill="white"/>
<path d="M477.05 200.534C485.845 200.534 492.975 198.157 492.975 195.226C492.975 192.294 485.845 189.917 477.05 189.917C468.256 189.917 461.126 192.294 461.126 195.226C461.126 198.157 468.256 200.534 477.05 200.534Z" fill="#3F3D56"/>
<path d="M469.088 190.676C468.926 190.676 468.768 190.624 468.638 190.528C468.507 190.431 468.411 190.295 468.363 190.14C468.28 189.868 460.224 162.853 479.309 154.717C479.4 154.677 479.499 154.656 479.599 154.655C479.699 154.654 479.798 154.672 479.89 154.709C479.983 154.746 480.067 154.802 480.139 154.871C480.21 154.941 480.267 155.024 480.306 155.116C480.345 155.208 480.366 155.307 480.367 155.406C480.368 155.506 480.349 155.605 480.311 155.698C480.274 155.79 480.219 155.874 480.149 155.946C480.079 156.017 479.995 156.073 479.903 156.112C462.061 163.718 469.733 189.436 469.813 189.695C469.872 189.887 469.852 190.095 469.758 190.272C469.664 190.45 469.503 190.583 469.311 190.642C469.239 190.665 469.164 190.676 469.088 190.676V190.676Z" fill="white"/>
<path d="M496.101 183.745C495.994 183.592 495.916 183.431 495.823 183.274C494.995 183.304 494.166 183.335 493.338 183.366L496.101 183.745Z" fill="#3F3D56"/>
<path d="M578.736 159.707C572.527 149.784 557.335 147.026 548.035 154.135C543.838 157.343 541.01 161.98 537.424 165.86C531.392 172.344 523.348 176.601 514.594 177.942C508.5 178.856 502.055 178.36 496.428 180.869C490.97 183.302 486.853 190.248 489.824 195.274C510.771 194.502 531.718 193.73 552.665 192.958C558.691 192.736 564.932 192.461 570.321 189.754C580.781 184.499 584.945 169.631 578.736 159.707Z" fill="#3F3D56"/>
<path d="M424.092 130.962C415.488 131.041 406.961 129.339 399.046 125.964C382.521 118.791 374.947 106.685 374.633 106.174C374.529 106.002 374.498 105.797 374.545 105.603C374.592 105.408 374.715 105.24 374.885 105.136C375.055 105.031 375.26 104.998 375.455 105.043C375.65 105.089 375.819 105.21 375.925 105.379C381.912 113.882 390.156 120.541 399.727 124.606C414.608 131.039 440.02 134.263 476.572 113.084C476.658 113.033 476.753 113 476.852 112.987C476.951 112.974 477.052 112.98 477.148 113.005C477.245 113.031 477.335 113.075 477.415 113.136C477.494 113.196 477.56 113.272 477.611 113.358C477.661 113.445 477.693 113.54 477.706 113.639C477.719 113.738 477.713 113.838 477.687 113.935C477.661 114.031 477.616 114.121 477.556 114.201C477.495 114.28 477.419 114.346 477.332 114.396C455.876 126.829 438.16 130.962 424.092 130.962Z" fill="white"/>
<path d="M427.381 92.4749C425.974 92.4733 424.625 91.9136 423.63 90.9184C422.634 89.9233 422.075 88.5741 422.073 87.1667C422.073 86.9656 422.153 86.7727 422.295 86.6305C422.437 86.4883 422.63 86.4084 422.831 86.4084C423.032 86.4084 423.225 86.4883 423.368 86.6305C423.51 86.7727 423.59 86.9656 423.59 87.1667C423.59 88.1723 423.989 89.1367 424.7 89.8478C425.411 90.5588 426.376 90.9583 427.381 90.9583C428.387 90.9583 429.351 90.5588 430.062 89.8478C430.773 89.1367 431.173 88.1723 431.173 87.1667C431.173 86.9656 431.253 86.7727 431.395 86.6305C431.537 86.4883 431.73 86.4084 431.931 86.4084C432.132 86.4084 432.325 86.4883 432.467 86.6305C432.609 86.7727 432.689 86.9656 432.689 87.1667C432.688 88.5741 432.128 89.9233 431.133 90.9184C430.138 91.9135 428.788 92.4733 427.381 92.4749Z" fill="white"/>
<path d="M420.177 195.354C420.016 195.354 419.86 195.303 419.73 195.208C419.6 195.113 419.504 194.979 419.455 194.826L407.322 156.782C407.291 156.687 407.28 156.587 407.288 156.488C407.296 156.388 407.324 156.291 407.369 156.203C407.415 156.114 407.478 156.035 407.554 155.97C407.63 155.906 407.718 155.857 407.813 155.827C407.908 155.797 408.008 155.785 408.108 155.794C408.207 155.802 408.304 155.83 408.393 155.876C408.481 155.922 408.56 155.985 408.624 156.062C408.688 156.138 408.737 156.226 408.767 156.322L420.9 194.365C420.936 194.479 420.945 194.599 420.925 194.717C420.906 194.835 420.859 194.946 420.789 195.043C420.719 195.139 420.627 195.217 420.52 195.272C420.414 195.326 420.296 195.354 420.177 195.354V195.354Z" fill="white"/>
<path d="M436.102 205.842C444.897 205.842 452.026 203.465 452.026 200.534C452.026 197.602 444.897 195.226 436.102 195.226C427.307 195.226 420.177 197.602 420.177 200.534C420.177 203.465 427.307 205.842 436.102 205.842Z" fill="#3F3D56"/>
<path d="M410.319 205.084C419.114 205.084 426.244 202.707 426.244 199.775C426.244 196.844 419.114 194.467 410.319 194.467C401.524 194.467 394.395 196.844 394.395 199.775C394.395 202.707 401.524 205.084 410.319 205.084Z" fill="#3F3D56"/>
<path d="M427.76 80.0211C431.111 80.0211 433.827 78.9765 433.827 77.6879C433.827 76.3993 431.111 75.3546 427.76 75.3546C424.41 75.3546 421.694 76.3993 421.694 77.6879C421.694 78.9765 424.41 80.0211 427.76 80.0211Z" fill="white"/>
<path d="M386.969 77.859C388.705 75.7807 390.877 74.109 393.329 72.9618C395.782 71.8147 398.457 71.2201 401.165 71.2201C403.873 71.2201 406.548 71.8147 409.001 72.9618C411.454 74.109 413.625 75.7807 415.361 77.859C418.302 75.0513 420.344 71.4347 421.23 67.4662C422.115 63.4978 421.804 59.3559 420.336 55.5643C418.867 51.7727 416.308 48.5017 412.98 46.1649C409.653 43.8281 405.707 42.5305 401.642 42.4362C397.577 42.3418 393.576 43.455 390.143 45.6349C386.711 47.8148 384.002 50.9636 382.36 54.683C380.717 58.4024 380.214 62.5254 380.914 66.5306C381.615 70.5358 383.487 74.2434 386.295 77.1844C386.515 77.4145 386.739 77.6393 386.969 77.859Z" fill="white"/>
<path d="M442.477 77.859C444.213 75.7807 446.384 74.109 448.836 72.9618C451.289 71.8147 453.964 71.2201 456.672 71.2201C459.38 71.2201 462.055 71.8147 464.508 72.9618C466.961 74.109 469.132 75.7807 470.868 77.859C473.809 75.0513 475.851 71.4347 476.737 67.4662C477.622 63.4978 477.311 59.3559 475.843 55.5643C474.374 51.7727 471.815 48.5017 468.487 46.1649C465.16 43.8281 461.214 42.5305 457.149 42.4362C453.084 42.3418 449.083 43.455 445.65 45.6349C442.218 47.8148 439.509 50.9636 437.866 54.683C436.224 58.4024 435.721 62.5254 436.421 66.5306C437.122 70.5358 438.994 74.2434 441.802 77.1844C442.022 77.4145 442.246 77.6393 442.477 77.859Z" fill="white"/>
<path d="M392.152 72.0602C396.058 72.0602 399.224 68.8941 399.224 64.9884C399.224 61.0828 396.058 57.9166 392.152 57.9166C388.246 57.9166 385.08 61.0828 385.08 64.9884C385.08 68.8941 388.246 72.0602 392.152 72.0602Z" fill="#3F3D56"/>
<path d="M447.657 72.0602C451.563 72.0602 454.729 68.8941 454.729 64.9884C454.729 61.0828 451.563 57.9166 447.657 57.9166C443.752 57.9166 440.585 61.0828 440.585 64.9884C440.585 68.8941 443.752 72.0602 447.657 72.0602Z" fill="#3F3D56"/>
<path d="M457.334 92.8242C460.756 92.8242 463.531 90.0498 463.531 86.6274C463.531 83.205 460.756 80.4305 457.334 80.4305C453.912 80.4305 451.137 83.205 451.137 86.6274C451.137 90.0498 453.912 92.8242 457.334 92.8242Z" fill="#FF6584"/>
<path d="M401.334 92.8242C404.756 92.8242 407.531 90.0498 407.531 86.6274C407.531 83.205 404.756 80.4305 401.334 80.4305C397.912 80.4305 395.137 83.205 395.137 86.6274C395.137 90.0498 397.912 92.8242 401.334 92.8242Z" fill="#FF6584"/>
</svg>
